<svg width="180" height="52" viewBox="0 0 180 52" fill="none" xmlns="http://www.w3.org/2000/svg">
<path d="M6.6575 51.3808H173.095C176.416 51.3808 179.126 48.7243 179.126 45.5V6.5C179.126 3.27573 176.416 0.619209 173.095 0.619209H6.6575C3.33629 0.619209 0.626495 3.27573 0.626495 6.5V45.5C0.626495 48.7243 3.33629 51.3808 6.6575 51.3808Z" stroke="url(#paint0_linear)"/>
<mask id="path-2-inside-1" fill="white">
<path d="M173.095 1.04162C176.177 1.04162 178.686 3.4905 178.686 6.5V45.5C178.686 48.5095 176.177 50.9584 173.095 50.9584H6.6575C3.57508 50.9584 1.06686 48.5095 1.06686 45.5V6.5C1.06686 3.4905 3.57508 1.04162 6.6575 1.04162H173.095ZM173.095 2.74817e-06H6.6575C2.99754 2.74817e-06 0 2.92663 0 6.5V45.5C0 49.0734 2.99754 52 6.6575 52H173.095C176.755 52 179.753 49.0734 179.753 45.5V6.5C179.753 2.92663 176.755 2.74817e-06 173.095 2.74817e-06Z"/>
</mask>
<path d="M173.095 1.04162C176.177 1.04162 178.686 3.4905 178.686 6.5V45.5C178.686 48.5095 176.177 50.9584 173.095 50.9584H6.6575C3.57508 50.9584 1.06686 48.5095 1.06686 45.5V6.5C1.06686 3.4905 3.57508 1.04162 6.6575 1.04162H173.095ZM173.095 2.74817e-06H6.6575C2.99754 2.74817e-06 0 2.92663 0 6.5V45.5C0 49.0734 2.99754 52 6.6575 52H173.095C176.755 52 179.753 49.0734 179.753 45.5V6.5C179.753 2.92663 176.755 2.74817e-06 173.095 2.74817e-06Z" fill="url(#paint1_linear)"/>
<path d="M173.095 -0.196787C176.855 -0.196787 179.939 2.7923 179.939 6.5H177.433C177.433 4.1887 175.5 2.28004 173.095 2.28004V-0.196787ZM179.939 6.5V45.5H177.433V6.5H179.939ZM179.939 45.5C179.939 49.2077 176.855 52.1968 173.095 52.1968V49.72C175.5 49.72 177.433 47.8113 177.433 45.5H179.939ZM173.095 52.1968H6.6575V49.72H173.095V52.1968ZM6.6575 52.1968C2.89757 52.1968 -0.186126 49.2077 -0.186126 45.5H2.31985C2.31985 47.8113 4.25258 49.72 6.6575 49.72V52.1968ZM-0.186126 45.5V6.5H2.31985V45.5H-0.186126ZM-0.186126 6.5C-0.186126 2.7923 2.89757 -0.196787 6.6575 -0.196787V2.28004C4.25258 2.28004 2.31985 4.1887 2.31985 6.5H-0.186126ZM6.6575 -0.196787H173.095V2.28004H6.6575V-0.196787ZM173.095 1.23841H6.6575V-1.23841H173.095V1.23841ZM6.6575 1.23841C3.67505 1.23841 1.25299 3.62483 1.25299 6.5H-1.25299C-1.25299 2.22843 2.32004 -1.23841 6.6575 -1.23841V1.23841ZM1.25299 6.5V45.5H-1.25299V6.5H1.25299ZM1.25299 45.5C1.25299 48.3752 3.67505 50.7616 6.6575 50.7616V53.2384C2.32004 53.2384 -1.25299 49.7716 -1.25299 45.5H1.25299ZM6.6575 50.7616H173.095V53.2384H6.6575V50.7616ZM173.095 50.7616C176.078 50.7616 178.5 48.3752 178.5 45.5H181.006C181.006 49.7716 177.433 53.2384 173.095 53.2384V50.7616ZM178.5 45.5V6.5H181.006V45.5H178.5ZM178.5 6.5C178.5 3.62483 176.078 1.23841 173.095 1.23841V-1.23841C177.433 -1.23841 181.006 2.22843 181.006 6.5H178.5Z" fill="url(#paint2_linear)" mask="url(#path-2-inside-1)"/>
<path d="M63.1364 13.3169C63.1364 14.4024 62.8036 15.2718 62.1478 15.9202C61.3938 16.6888 60.4119 17.0756 59.2085 17.0756C58.0584 17.0756 57.0764 16.6823 56.2709 15.9072C55.4637 15.1207 55.0609 14.1554 55.0609 13.0001C55.0609 11.8447 55.4637 10.8794 56.2709 10.0994C57.0764 9.31781 58.0584 8.92456 59.2085 8.92456C59.7811 8.92456 60.327 9.03994 60.8479 9.25444C61.3672 9.47056 61.79 9.76306 62.0962 10.1238L61.4005 10.8096C60.8662 10.1937 60.1389 9.88981 59.2085 9.88981C58.3697 9.88981 57.6423 10.1758 57.0248 10.7527C56.414 11.3312 56.1078 12.0803 56.1078 13.0001C56.1078 13.9198 56.414 14.6754 57.0248 15.2539C57.6423 15.8243 58.3697 16.1168 59.2085 16.1168C60.0989 16.1168 60.8479 15.8243 61.4388 15.2474C61.8282 14.8656 62.0496 14.3391 62.1079 13.6663H59.2085V12.7271H63.0765C63.1231 12.9302 63.1364 13.1268 63.1364 13.3169Z" fill="#D001FF" stroke="url(#paint3_linear)" stroke-width="0.16" stroke-miterlimit="10"/>
<path d="M69.273 10.0604H65.6396V12.5304H68.9151V13.4696H65.6396V15.9396H69.273V16.8968H64.6111V9.10327H69.273V10.0604Z" fill="#D001FF" stroke="url(#paint4_linear)" stroke-width="0.16" stroke-miterlimit="10"/>
<path d="M73.6036 16.8968H72.5751V10.0604H70.3465V9.10327H75.8339V10.0604H73.6036V16.8968Z" fill="#D001FF" stroke="url(#paint5_linear)" stroke-width="0.16" stroke-miterlimit="10"/>
<path d="M79.8051 16.8968V9.10327H80.8321V16.8968H79.8051Z" fill="#D001FF" stroke="url(#paint6_linear)" stroke-width="0.16" stroke-miterlimit="10"/>
<path d="M85.3841 16.8968H84.3638V10.0604H82.1269V9.10327H87.621V10.0604H85.3841V16.8968Z" fill="#D001FF" stroke="url(#paint7_linear)" stroke-width="0.16" stroke-miterlimit="10"/>
<path d="M98.0101 15.8942C97.2228 16.6823 96.2475 17.0756 95.0841 17.0756C93.914 17.0756 92.9387 16.6823 92.1515 15.8942C91.3659 15.1077 90.9748 14.1424 90.9748 13.0001C90.9748 11.8577 91.3659 10.8924 92.1515 10.1059C92.9387 9.31781 93.914 8.92456 95.0841 8.92456C96.2408 8.92456 97.2162 9.31781 98.0034 10.1124C98.7957 10.9054 99.1868 11.8642 99.1868 13.0001C99.1868 14.1424 98.7957 15.1077 98.0101 15.8942ZM92.9121 15.2409C93.5046 15.8243 94.2253 16.1168 95.0841 16.1168C95.9363 16.1168 96.6636 15.8243 97.2495 15.2409C97.8403 14.6576 98.1399 13.9084 98.1399 13.0001C98.1399 12.0917 97.8403 11.3426 97.2495 10.7592C96.6636 10.1758 95.9363 9.88331 95.0841 9.88331C94.2253 9.88331 93.5046 10.1758 92.9121 10.7592C92.3212 11.3426 92.0217 12.0917 92.0217 13.0001C92.0217 13.9084 92.3212 14.6576 92.9121 15.2409Z" fill="#D001FF" stroke="url(#paint8_linear)" stroke-width="0.16" stroke-miterlimit="10"/>
<path d="M100.63 16.8968V9.10327H101.878L105.759 15.1645H105.804L105.759 13.6663V9.10327H106.786V16.8968H105.714L101.65 10.5365H101.605L101.65 12.0413V16.8968H100.63Z" fill="#D001FF" stroke="url(#paint9_linear)" stroke-width="0.16" stroke-miterlimit="10"/>
<mask id="path-11-inside-2" fill="white">
<path d="M90.7218 28.2783C87.5944 28.2783 85.0396 30.602 85.0396 33.8082C85.0396 36.9883 87.5944 39.3364 90.7218 39.3364C93.8558 39.3364 96.4106 36.9883 96.4106 33.8082C96.4106 30.602 93.8558 28.2783 90.7218 28.2783ZM90.7218 37.1589C89.0058 37.1589 87.5295 35.776 87.5295 33.8082C87.5295 31.8143 89.0058 30.4558 90.7218 30.4558C92.4377 30.4558 93.9207 31.8143 93.9207 33.8082C93.9207 35.776 92.4377 37.1589 90.7218 37.1589ZM78.3238 28.2783C75.1898 28.2783 72.6417 30.602 72.6417 33.8082C72.6417 36.9883 75.1898 39.3364 78.3238 39.3364C81.4562 39.3364 84.006 36.9883 84.006 33.8082C84.006 30.602 81.4562 28.2783 78.3238 28.2783ZM78.3238 37.1589C76.6062 37.1589 75.1249 35.776 75.1249 33.8082C75.1249 31.8143 76.6062 30.4558 78.3238 30.4558C80.0398 30.4558 81.5161 31.8143 81.5161 33.8082C81.5161 35.776 80.0398 37.1589 78.3238 37.1589ZM63.5708 29.9732V32.3229H69.3179C69.1498 33.6359 68.7004 34.6012 68.0114 35.2739C67.1725 36.0864 65.866 36.9883 63.5708 36.9883C60.034 36.9883 57.2645 34.2014 57.2645 30.7483C57.2645 27.2952 60.034 24.5083 63.5708 24.5083C65.4832 24.5083 66.8746 25.2379 67.9015 26.1837L69.5975 24.5278C68.1612 23.1888 66.2505 22.1602 63.5708 22.1602C58.7208 22.1602 54.6448 26.013 54.6448 30.7483C54.6448 35.4835 58.7208 39.3364 63.5708 39.3364C66.1922 39.3364 68.1612 38.4979 69.709 36.9249C71.2952 35.3763 71.7895 33.1988 71.7895 31.4405C71.7895 30.8945 71.7429 30.3924 71.6597 29.9732H63.5708ZM123.898 31.7948C123.43 30.5582 121.987 28.2783 119.048 28.2783C116.135 28.2783 113.71 30.5192 113.71 33.8082C113.71 36.9054 116.11 39.3364 119.327 39.3364C121.929 39.3364 123.43 37.7878 124.048 36.8859L122.117 35.6298C121.473 36.5495 120.596 37.1589 119.327 37.1589C118.067 37.1589 117.164 36.595 116.584 35.4835L124.159 32.4237L123.898 31.7948ZM116.175 33.6359C116.11 31.5039 117.871 30.4119 119.133 30.4119C120.121 30.4119 120.96 30.8945 121.24 31.5852L116.175 33.6359ZM110.019 39H112.508V22.75H110.019V39ZM105.941 29.51H105.858C105.298 28.8633 104.232 28.2783 102.88 28.2783C100.044 28.2783 97.4508 30.7093 97.4508 33.826C97.4508 36.9249 100.044 39.3364 102.88 39.3364C104.232 39.3364 105.298 38.7465 105.858 38.0803H105.941V38.8733C105.941 40.9874 104.784 42.1233 102.918 42.1233C101.397 42.1233 100.453 41.0508 100.064 40.1489L97.8986 41.0313C98.5227 42.497 100.175 44.3008 102.918 44.3008C105.838 44.3008 108.301 42.6238 108.301 38.5434V28.6147H105.941V29.51ZM103.093 37.1589C101.377 37.1589 99.9407 35.7565 99.9407 33.826C99.9407 31.8777 101.377 30.4558 103.093 30.4558C104.784 30.4558 106.117 31.8777 106.117 33.826C106.117 35.7565 104.784 37.1589 103.093 37.1589ZM135.555 22.75H129.6V39H132.083V32.8429H135.555C138.313 32.8429 141.018 30.8945 141.018 27.7957C141.018 24.6984 138.306 22.75 135.555 22.75ZM135.62 30.5825H132.083V25.0104H135.62C137.474 25.0104 138.533 26.5135 138.533 27.7957C138.533 29.0534 137.474 30.5825 135.62 30.5825ZM150.97 28.2474C149.176 28.2474 147.311 29.0209 146.543 30.7353L148.747 31.6372C149.221 30.7353 150.093 30.4428 151.015 30.4428C152.304 30.4428 153.61 31.1984 153.63 32.5325V32.7032C153.181 32.4497 152.219 32.0743 151.035 32.0743C148.662 32.0743 146.244 33.3499 146.244 35.7305C146.244 37.908 148.188 39.3104 150.373 39.3104C152.044 39.3104 152.966 38.5743 153.545 37.7179H153.63V38.974H156.029V32.7405C156.029 29.8594 153.825 28.2474 150.97 28.2474ZM150.671 37.1524C149.859 37.1524 148.727 36.7592 148.727 35.776C148.727 34.5183 150.138 34.0357 151.36 34.0357C152.453 34.0357 152.966 34.2713 153.63 34.5817C153.435 36.0864 152.109 37.1524 150.671 37.1524ZM164.766 28.6033L161.912 35.6477H161.827L158.876 28.6033H156.198L160.632 38.4475L158.102 43.9254H160.697L167.529 28.6033H164.766ZM142.382 39H144.872V22.75H142.382V39Z"/>
</mask>
<path d="M90.7218 28.2783C87.5944 28.2783 85.0396 30.602 85.0396 33.8082C85.0396 36.9883 87.5944 39.3364 90.7218 39.3364C93.8558 39.3364 96.4106 36.9883 96.4106 33.8082C96.4106 30.602 93.8558 28.2783 90.7218 28.2783ZM90.7218 37.1589C89.0058 37.1589 87.5295 35.776 87.5295 33.8082C87.5295 31.8143 89.0058 30.4558 90.7218 30.4558C92.4377 30.4558 93.9207 31.8143 93.9207 33.8082C93.9207 35.776 92.4377 37.1589 90.7218 37.1589ZM78.3238 28.2783C75.1898 28.2783 72.6417 30.602 72.6417 33.8082C72.6417 36.9883 75.1898 39.3364 78.3238 39.3364C81.4562 39.3364 84.006 36.9883 84.006 33.8082C84.006 30.602 81.4562 28.2783 78.3238 28.2783ZM78.3238 37.1589C76.6062 37.1589 75.1249 35.776 75.1249 33.8082C75.1249 31.8143 76.6062 30.4558 78.3238 30.4558C80.0398 30.4558 81.5161 31.8143 81.5161 33.8082C81.5161 35.776 80.0398 37.1589 78.3238 37.1589ZM63.5708 29.9732V32.3229H69.3179C69.1498 33.6359 68.7004 34.6012 68.0114 35.2739C67.1725 36.0864 65.866 36.9883 63.5708 36.9883C60.034 36.9883 57.2645 34.2014 57.2645 30.7483C57.2645 27.2952 60.034 24.5083 63.5708 24.5083C65.4832 24.5083 66.8746 25.2379 67.9015 26.1837L69.5975 24.5278C68.1612 23.1888 66.2505 22.1602 63.5708 22.1602C58.7208 22.1602 54.6448 26.013 54.6448 30.7483C54.6448 35.4835 58.7208 39.3364 63.5708 39.3364C66.1922 39.3364 68.1612 38.4979 69.709 36.9249C71.2952 35.3763 71.7895 33.1988 71.7895 31.4405C71.7895 30.8945 71.7429 30.3924 71.6597 29.9732H63.5708ZM123.898 31.7948C123.43 30.5582 121.987 28.2783 119.048 28.2783C116.135 28.2783 113.71 30.5192 113.71 33.8082C113.71 36.9054 116.11 39.3364 119.327 39.3364C121.929 39.3364 123.43 37.7878 124.048 36.8859L122.117 35.6298C121.473 36.5495 120.596 37.1589 119.327 37.1589C118.067 37.1589 117.164 36.595 116.584 35.4835L124.159 32.4237L123.898 31.7948ZM116.175 33.6359C116.11 31.5039 117.871 30.4119 119.133 30.4119C120.121 30.4119 120.96 30.8945 121.24 31.5852L116.175 33.6359ZM110.019 39H112.508V22.75H110.019V39ZM105.941 29.51H105.858C105.298 28.8633 104.232 28.2783 102.88 28.2783C100.044 28.2783 97.4508 30.7093 97.4508 33.826C97.4508 36.9249 100.044 39.3364 102.88 39.3364C104.232 39.3364 105.298 38.7465 105.858 38.0803H105.941V38.8733C105.941 40.9874 104.784 42.1233 102.918 42.1233C101.397 42.1233 100.453 41.0508 100.064 40.1489L97.8986 41.0313C98.5227 42.497 100.175 44.3008 102.918 44.3008C105.838 44.3008 108.301 42.6238 108.301 38.5434V28.6147H105.941V29.51ZM103.093 37.1589C101.377 37.1589 99.9407 35.7565 99.9407 33.826C99.9407 31.8777 101.377 30.4558 103.093 30.4558C104.784 30.4558 106.117 31.8777 106.117 33.826C106.117 35.7565 104.784 37.1589 103.093 37.1589ZM135.555 22.75H129.6V39H132.083V32.8429H135.555C138.313 32.8429 141.018 30.8945 141.018 27.7957C141.018 24.6984 138.306 22.75 135.555 22.75ZM135.62 30.5825H132.083V25.0104H135.62C137.474 25.0104 138.533 26.5135 138.533 27.7957C138.533 29.0534 137.474 30.5825 135.62 30.5825ZM150.97 28.2474C149.176 28.2474 147.311 29.0209 146.543 30.7353L148.747 31.6372C149.221 30.7353 150.093 30.4428 151.015 30.4428C152.304 30.4428 153.61 31.1984 153.63 32.5325V32.7032C153.181 32.4497 152.219 32.0743 151.035 32.0743C148.662 32.0743 146.244 33.3499 146.244 35.7305C146.244 37.908 148.188 39.3104 150.373 39.3104C152.044 39.3104 152.966 38.5743 153.545 37.7179H153.63V38.974H156.029V32.7405C156.029 29.8594 153.825 28.2474 150.97 28.2474ZM150.671 37.1524C149.859 37.1524 148.727 36.7592 148.727 35.776C148.727 34.5183 150.138 34.0357 151.36 34.0357C152.453 34.0357 152.966 34.2713 153.63 34.5817C153.435 36.0864 152.109 37.1524 150.671 37.1524ZM164.766 28.6033L161.912 35.6477H161.827L158.876 28.6033H156.198L160.632 38.4475L158.102 43.9254H160.697L167.529 28.6033H164.766ZM142.382 39H144.872V22.75H142.382V39Z" fill="#D001FF" stroke="url(#paint10_linear)" stroke-width="2" mask="url(#path-11-inside-2)"/>
<path fill-rule="evenodd" clip-rule="evenodd" d="M30.491 27.0607L15.0815 42.0995C15.4202 42.1218 15.8445 42.0262 16.3574 41.7424L16.3576 41.7422L34.9551 31.4245L30.491 27.0607ZM16.9698 42.8228C15.9534 43.3853 14.8994 43.5105 14.0641 43.0925L14.0061 43.1491L13.6457 42.8215C13.5807 42.7685 13.5176 42.7112 13.4567 42.6497L13.4566 42.6496L13.4554 42.6483L13.4429 42.6357L13.0139 42.1953L13.0699 42.1406C12.7871 41.6492 12.6502 41.0446 12.6502 40.378V11.6285C12.6502 10.9619 12.7871 10.3573 13.0698 9.86599L13.0138 9.8113L13.4429 9.37085C13.4432 9.37054 13.4436 9.37024 13.4439 9.36992L13.4437 9.36981L13.4482 9.36541C13.4736 9.33953 13.4994 9.31441 13.5255 9.29002L13.5505 9.2656L13.9907 8.83584L14.0685 8.91177C14.9025 8.49647 15.9537 8.62059 16.9674 9.17589L16.9704 9.17754L35.8864 19.672L35.8908 19.6678L36.304 19.9022L36.4247 19.9707L36.4371 19.9776L37.1475 20.3717L37.1472 20.372L42.9353 23.5875L42.936 23.5879C43.9781 24.1637 44.6504 25.0144 44.6504 26.0008C44.6504 26.9868 43.9784 27.8391 42.9368 28.4182L42.9362 28.4185L36.4219 32.0308L36.4219 32.0308L36.4218 32.0309L16.9704 42.8225L16.9698 42.8228ZM36.2198 21.2775L42.3227 24.6678L42.324 24.6685C43.1406 25.1196 43.3975 25.6272 43.3975 26.0008C43.3975 26.3749 43.1399 26.8843 42.3227 27.3387L42.3225 27.3388L36.22 30.7228L31.3828 26L36.2198 21.2775ZM29.5998 26.0001L14.0209 41.212C13.9477 40.9871 13.9032 40.7111 13.9032 40.378V11.6285C13.9032 11.2954 13.9477 11.0192 14.0209 10.7943L29.5998 26.0001ZM15.0871 9.90587L30.4912 24.9395L34.9589 20.5776L16.36 10.2591L16.3586 10.2583C15.8481 9.97892 15.4252 9.8842 15.0871 9.90587Z" fill="url(#paint11_linear)"/>
<defs>
<linearGradient id="paint0_linear" x1="0" y1="52" x2="156.924" y2="-39.2558" gradientUnits="userSpaceOnUse">
<stop stop-color="#D001FF"/>
<stop offset="1" stop-color="#E68DFF"/>
</linearGradient>
<linearGradient id="paint1_linear" x1="0" y1="52" x2="156.924" y2="-39.2558" gradientUnits="userSpaceOnUse">
<stop stop-color="#D001FF"/>
<stop offset="1" stop-color="#E68DFF"/>
</linearGradient>
<linearGradient id="paint2_linear" x1="0" y1="52" x2="156.924" y2="-39.2558" gradientUnits="userSpaceOnUse">
<stop stop-color="#D001FF"/>
<stop offset="1" stop-color="#E68DFF"/>
</linearGradient>
<linearGradient id="paint3_linear" x1="55.0609" y1="8.92456" x2="64.24" y2="10.4544" gradientUnits="userSpaceOnUse">
<stop stop-color="#D001FF"/>
<stop offset="1" stop-color="#E68DFF"/>
</linearGradient>
<linearGradient id="paint4_linear" x1="64.6111" y1="9.10327" x2="70.0026" y2="9.64583" gradientUnits="userSpaceOnUse">
<stop stop-color="#D001FF"/>
<stop offset="1" stop-color="#E68DFF"/>
</linearGradient>
<linearGradient id="paint5_linear" x1="70.3465" y1="9.10327" x2="76.6684" y2="9.8521" gradientUnits="userSpaceOnUse">
<stop stop-color="#D001FF"/>
<stop offset="1" stop-color="#E68DFF"/>
</linearGradient>
<linearGradient id="paint6_linear" x1="79.8051" y1="9.10327" x2="81.0042" y2="9.12985" gradientUnits="userSpaceOnUse">
<stop stop-color="#D001FF"/>
<stop offset="1" stop-color="#E68DFF"/>
</linearGradient>
<linearGradient id="paint7_linear" x1="82.1269" y1="9.10327" x2="88.4563" y2="9.85389" gradientUnits="userSpaceOnUse">
<stop stop-color="#D001FF"/>
<stop offset="1" stop-color="#E68DFF"/>
</linearGradient>
<linearGradient id="paint8_linear" x1="90.9748" y1="8.92456" x2="100.3" y2="10.5051" gradientUnits="userSpaceOnUse">
<stop stop-color="#D001FF"/>
<stop offset="1" stop-color="#E68DFF"/>
</linearGradient>
<linearGradient id="paint9_linear" x1="100.63" y1="9.10327" x2="107.697" y2="10.0425" gradientUnits="userSpaceOnUse">
<stop stop-color="#D001FF"/>
<stop offset="1" stop-color="#E68DFF"/>
</linearGradient>
<linearGradient id="paint10_linear" x1="54.6448" y1="44.3008" x2="130.624" y2="-20.8676" gradientUnits="userSpaceOnUse">
<stop stop-color="#D001FF"/>
<stop offset="1" stop-color="#E68DFF"/>
</linearGradient>
<linearGradient id="paint11_linear" x1="12.6502" y1="43.3401" x2="49.1539" y2="37.6729" gradientUnits="userSpaceOnUse">
<stop stop-color="#D001FF"/>
<stop offset="1" stop-color="#E68DFF"/>
</linearGradient>
</defs>
</svg>
