<svg width="42" height="24" viewBox="0 0 42 24" fill="none" xmlns="http://www.w3.org/2000/svg">
<path fill-rule="evenodd" clip-rule="evenodd" d="M41.4069 3.59765L37.6702 -9.25745e-05V2.39835H30.573V4.79685H37.6702V7.1954L41.4069 3.59765ZM10.7932 2.39835H30.573V4.82477H10.7932C6.17237 4.82477 2.42642 8.57072 2.42642 13.1916C2.42642 17.8124 6.17238 21.5584 10.7932 21.5584H30.638C35.1786 21.5584 38.8745 17.9414 39.0014 13.4314H41.4286C41.3011 19.2816 36.5188 23.9848 30.638 23.9848H10.7932C4.8323 23.9848 -3.26974e-06 19.1525 -3.26974e-06 13.1916C-3.26974e-06 7.23064 4.83229 2.39835 10.7932 2.39835ZM11.1314 8.39448C10.5262 8.39448 10.0356 8.88509 10.0356 9.49029V11.0125C10.0356 11.6177 10.5262 12.1083 11.1314 12.1083C11.7366 12.1083 12.2272 11.6177 12.2272 11.0125V9.49029C12.2272 8.88509 11.7366 8.39448 11.1314 8.39448ZM30.478 10.0397C30.478 10.8974 31.1733 11.5926 32.0309 11.5926H32.1603C33.018 11.5926 33.7133 10.8974 33.7133 10.0397V9.94755C33.7133 9.0899 33.018 8.39463 32.1604 8.39463H32.0309C31.1733 8.39463 30.478 9.0899 30.478 9.94755V10.0397ZM28.7958 14.7905C27.9381 14.7905 27.2429 14.0952 27.2429 13.2376V13.1454C27.2429 12.2878 27.9381 11.5925 28.7958 11.5925H28.9252C29.7828 11.5925 30.4781 12.2878 30.4781 13.1454V13.2376C30.4781 14.0952 29.7828 14.7905 28.9252 14.7905H28.7958ZM32.0309 17.9885C31.1733 17.9885 30.478 17.2933 30.478 16.4356V16.3434C30.478 15.4858 31.1733 14.7905 32.0309 14.7905H32.1604C33.018 14.7905 33.7133 15.4858 33.7133 16.3434V16.4356C33.7133 17.2933 33.018 17.9885 32.1603 17.9885H32.0309ZM35.2662 14.7905C34.4085 14.7905 33.7132 14.0952 33.7132 13.2376V13.1454C33.7132 12.2878 34.4085 11.5925 35.2662 11.5925H35.3956C36.2532 11.5925 36.9485 12.2878 36.9485 13.1454V13.2376C36.9485 14.0952 36.2532 14.7905 35.3956 14.7905H35.2662ZM10.0356 15.3705C10.0356 14.7653 10.5262 14.2747 11.1314 14.2747C11.7366 14.2747 12.2272 14.7653 12.2272 15.3705V16.8927C12.2272 17.4979 11.7366 17.9885 11.1314 17.9885C10.5262 17.9885 10.0356 17.4979 10.0356 16.8927V15.3705ZM12.2271 13.1915C12.2271 13.7897 12.7121 14.2747 13.3103 14.2747H14.901C15.4992 14.2747 15.9841 13.7897 15.9841 13.1915C15.9841 12.5933 15.4992 12.1083 14.901 12.1083H13.3103C12.7121 12.1083 12.2271 12.5933 12.2271 13.1915ZM7.3617 14.2747C6.76347 14.2747 6.27851 13.7897 6.27851 13.1915C6.27851 12.5933 6.76347 12.1083 7.3617 12.1083H8.95236C9.5506 12.1083 10.0356 12.5933 10.0356 13.1915C10.0356 13.7897 9.55059 14.2747 8.95236 14.2747H7.3617Z" fill="url(#paint0_linear)"/>
<defs>
<linearGradient id="paint0_linear" x1="0" y1="0" x2="44.6297" y2="12.9683" gradientUnits="userSpaceOnUse">
<stop stop-color="#D001FF"/>
<stop offset="1" stop-color="#E68DFF"/>
</linearGradient>
</defs>
</svg>
