<svg width="287" height="30" viewBox="0 0 287 30" fill="none" xmlns="http://www.w3.org/2000/svg">
<path fill-rule="evenodd" clip-rule="evenodd" d="M41.4069 6.59765L37.6702 2.99991V5.39835H30.573V7.79685H37.6702V10.1954L41.4069 6.59765ZM10.7932 5.39835H30.573V7.82477H10.7932C6.17237 7.82477 2.42642 11.5707 2.42642 16.1916C2.42642 20.8124 6.17238 24.5584 10.7932 24.5584H30.638C35.1786 24.5584 38.8745 20.9414 39.0014 16.4314H41.4286C41.3011 22.2816 36.5188 26.9848 30.638 26.9848H10.7932C4.8323 26.9848 -3.26974e-06 22.1525 -3.26974e-06 16.1916C-3.26974e-06 10.2306 4.83229 5.39835 10.7932 5.39835ZM11.1314 11.3945C10.5262 11.3945 10.0356 11.8851 10.0356 12.4903V14.0125C10.0356 14.6177 10.5262 15.1083 11.1314 15.1083C11.7366 15.1083 12.2272 14.6177 12.2272 14.0125V12.4903C12.2272 11.8851 11.7366 11.3945 11.1314 11.3945ZM30.478 13.0397C30.478 13.8974 31.1733 14.5926 32.0309 14.5926H32.1603C33.018 14.5926 33.7133 13.8974 33.7133 13.0397V12.9475C33.7133 12.0899 33.018 11.3946 32.1604 11.3946H32.0309C31.1733 11.3946 30.478 12.0899 30.478 12.9475V13.0397ZM28.7958 17.7905C27.9381 17.7905 27.2429 17.0952 27.2429 16.2376V16.1454C27.2429 15.2878 27.9381 14.5925 28.7958 14.5925H28.9252C29.7828 14.5925 30.4781 15.2878 30.4781 16.1454V16.2376C30.4781 17.0952 29.7828 17.7905 28.9252 17.7905H28.7958ZM32.0309 20.9885C31.1733 20.9885 30.478 20.2933 30.478 19.4356V19.3434C30.478 18.4858 31.1733 17.7905 32.0309 17.7905H32.1604C33.018 17.7905 33.7133 18.4858 33.7133 19.3434V19.4356C33.7133 20.2933 33.018 20.9885 32.1603 20.9885H32.0309ZM35.2662 17.7905C34.4085 17.7905 33.7132 17.0952 33.7132 16.2376V16.1454C33.7132 15.2878 34.4085 14.5925 35.2662 14.5925H35.3956C36.2532 14.5925 36.9485 15.2878 36.9485 16.1454V16.2376C36.9485 17.0952 36.2532 17.7905 35.3956 17.7905H35.2662ZM10.0356 18.3705C10.0356 17.7653 10.5262 17.2747 11.1314 17.2747C11.7366 17.2747 12.2272 17.7653 12.2272 18.3705V19.8927C12.2272 20.4979 11.7366 20.9885 11.1314 20.9885C10.5262 20.9885 10.0356 20.4979 10.0356 19.8927V18.3705ZM12.2271 16.1915C12.2271 16.7897 12.7121 17.2747 13.3103 17.2747H14.901C15.4992 17.2747 15.9841 16.7897 15.9841 16.1915C15.9841 15.5933 15.4992 15.1083 14.901 15.1083H13.3103C12.7121 15.1083 12.2271 15.5933 12.2271 16.1915ZM7.3617 17.2747C6.76347 17.2747 6.27851 16.7897 6.27851 16.1915C6.27851 15.5933 6.76347 15.1083 7.3617 15.1083H8.95236C9.5506 15.1083 10.0356 15.5933 10.0356 16.1915C10.0356 16.7897 9.55059 17.2747 8.95236 17.2747H7.3617Z" fill="url(#paint0_linear)"/>
<path d="M52.0918 23H61.3304V20.3693H54.9089V8.08571H52.0918V23ZM68.2907 23.3107C69.3678 23.3107 70.3587 23.0276 71.2632 22.4614C72.1746 21.8952 72.8409 21.1012 73.2621 20.0793L70.445 19.2714C70.0169 20.2105 69.2435 20.68 68.125 20.68C67.3585 20.68 66.7544 20.466 66.3125 20.0379C65.8775 19.6098 65.6082 18.9952 65.5046 18.1943H73.3553C73.4727 16.841 73.3346 15.6637 72.941 14.6625C72.5475 13.6613 71.9399 12.8845 71.1182 12.3321C70.2965 11.7798 69.2988 11.5036 68.125 11.5036C67.0202 11.5036 66.0432 11.7556 65.1939 12.2596C64.3446 12.7568 63.6783 13.4576 63.195 14.3621C62.7116 15.2667 62.47 16.33 62.47 17.5521C62.47 18.6707 62.7151 19.665 63.2053 20.535C63.7025 21.3981 64.386 22.0782 65.256 22.5754C66.1329 23.0656 67.1445 23.3107 68.2907 23.3107ZM68.2493 13.9479C68.9259 13.9479 69.4438 14.117 69.8028 14.4554C70.1688 14.7937 70.4035 15.3426 70.5071 16.1021H65.5771C65.874 14.666 66.7647 13.9479 68.2493 13.9479ZM84.3773 23.3107C84.902 23.3107 85.3854 23.2486 85.8273 23.1243C86.2761 23 86.6835 22.8239 87.0494 22.5961V23.725C87.0632 24.1393 86.9562 24.4845 86.7283 24.7607C86.5074 25.0438 86.2105 25.2544 85.8376 25.3925C85.4648 25.5375 85.0677 25.61 84.6466 25.61C84.253 25.61 83.887 25.5237 83.5487 25.3511C83.2173 25.1785 82.9618 24.9264 82.7823 24.595L80.1723 25.8586C80.6004 26.5836 81.2114 27.167 82.0055 27.6089C82.7995 28.0577 83.673 28.2821 84.6258 28.2821C85.4475 28.2821 86.2105 28.1717 86.9148 27.9507C87.6191 27.7367 88.2129 27.4087 88.6962 26.9668C89.1864 26.5249 89.5213 25.9621 89.7008 25.2786C89.763 25.0369 89.8044 24.7918 89.8251 24.5432C89.8527 24.3015 89.8666 24.0426 89.8666 23.7664V11.8143H87.4016V12.4357C87.0218 12.1388 86.5902 11.911 86.1069 11.7521C85.6305 11.5864 85.1023 11.5036 84.5223 11.5036C83.452 11.5036 82.5199 11.759 81.7258 12.27C80.9318 12.781 80.3138 13.4818 79.8719 14.3725C79.4369 15.2563 79.2194 16.2679 79.2194 17.4071C79.2194 18.5257 79.4335 19.5304 79.8616 20.4211C80.2966 21.3118 80.9007 22.0161 81.6741 22.5339C82.4474 23.0518 83.3485 23.3107 84.3773 23.3107ZM84.833 20.8043C84.2254 20.8043 83.7282 20.6524 83.3416 20.3486C82.9549 20.0448 82.6683 19.6374 82.4819 19.1264C82.2955 18.6086 82.2023 18.0355 82.2023 17.4071C82.2023 16.7857 82.2989 16.2195 82.4923 15.7086C82.6856 15.1907 82.9825 14.7799 83.383 14.4761C83.7904 14.1654 84.3082 14.01 84.9366 14.01C85.8204 14.01 86.4521 14.3242 86.8319 14.9525C87.2117 15.5739 87.4016 16.3921 87.4016 17.4071C87.4016 18.4221 87.2082 19.2438 86.8216 19.8721C86.4418 20.4936 85.7789 20.8043 84.833 20.8043ZM92.767 23H95.6049V17.2829C95.6049 15.9848 96.1158 15.101 97.1378 14.6314C97.4692 14.4726 97.8386 14.3794 98.246 14.3518C98.6603 14.3173 99.0228 14.3483 99.3335 14.445V11.8143C98.8294 11.7521 98.3254 11.766 97.8213 11.8557C97.3173 11.9386 96.8616 12.1043 96.4542 12.3529C96.1918 12.5048 95.9605 12.6877 95.7603 12.9018C95.5669 13.1158 95.3978 13.354 95.2528 13.6164V11.8143H92.767V23ZM106.301 23.3107C107.378 23.3107 108.369 23.0276 109.273 22.4614C110.185 21.8952 110.851 21.1012 111.272 20.0793L108.455 19.2714C108.027 20.2105 107.253 20.68 106.135 20.68C105.368 20.68 104.764 20.466 104.322 20.0379C103.887 19.6098 103.618 18.9952 103.515 18.1943H111.365C111.483 16.841 111.345 15.6637 110.951 14.6625C110.557 13.6613 109.95 12.8845 109.128 12.3321C108.306 11.7798 107.309 11.5036 106.135 11.5036C105.03 11.5036 104.053 11.7556 103.204 12.2596C102.355 12.7568 101.688 13.4576 101.205 14.3621C100.722 15.2667 100.48 16.33 100.48 17.5521C100.48 18.6707 100.725 19.665 101.215 20.535C101.712 21.3981 102.396 22.0782 103.266 22.5754C104.143 23.0656 105.154 23.3107 106.301 23.3107ZM106.259 13.9479C106.936 13.9479 107.454 14.117 107.813 14.4554C108.179 14.7937 108.413 15.3426 108.517 16.1021H103.587C103.884 14.666 104.775 13.9479 106.259 13.9479ZM113.38 23H116.238V17.3243C116.238 16.6269 116.314 16.0676 116.466 15.6464C116.625 15.2252 116.825 14.9076 117.067 14.6936C117.309 14.4726 117.567 14.3242 117.844 14.2482C118.12 14.1723 118.379 14.1343 118.62 14.1343C119.221 14.1343 119.684 14.2689 120.008 14.5382C120.34 14.8075 120.578 15.1424 120.723 15.5429C120.868 15.9433 120.954 16.3438 120.982 16.7443C121.009 17.1379 121.023 17.4624 121.023 17.7179V23H123.882V16.7236C123.882 16.5371 123.868 16.2402 123.84 15.8329C123.813 15.4255 123.733 14.9767 123.602 14.4864C123.471 13.9893 123.25 13.5129 122.939 13.0571C122.636 12.6014 122.207 12.2251 121.655 11.9282C121.103 11.6313 120.388 11.4829 119.511 11.4829C118.703 11.4829 117.999 11.6175 117.398 11.8868C116.798 12.1561 116.294 12.5151 115.886 12.9639V11.8143H113.38V23ZM126.776 10.2607H129.594V7.775H126.776V10.2607ZM126.776 23H129.594V11.8143H126.776V23ZM137.898 23.3107C138.975 23.3107 139.966 23.0276 140.87 22.4614C141.782 21.8952 142.448 21.1012 142.869 20.0793L140.052 19.2714C139.624 20.2105 138.851 20.68 137.732 20.68C136.966 20.68 136.362 20.466 135.92 20.0379C135.485 19.6098 135.215 18.9952 135.112 18.1943H142.963C143.08 16.841 142.942 15.6637 142.548 14.6625C142.155 13.6613 141.547 12.8845 140.725 12.3321C139.904 11.7798 138.906 11.5036 137.732 11.5036C136.627 11.5036 135.65 11.7556 134.801 12.2596C133.952 12.7568 133.286 13.4576 132.802 14.3621C132.319 15.2667 132.077 16.33 132.077 17.5521C132.077 18.6707 132.322 19.665 132.813 20.535C133.31 21.3981 133.993 22.0782 134.863 22.5754C135.74 23.0656 136.752 23.3107 137.898 23.3107ZM137.857 13.9479C138.533 13.9479 139.051 14.117 139.41 14.4554C139.776 14.7937 140.011 15.3426 140.114 16.1021H135.184C135.481 14.666 136.372 13.9479 137.857 13.9479ZM145.301 23H148.139V17.2829C148.139 15.9848 148.65 15.101 149.672 14.6314C150.003 14.4726 150.373 14.3794 150.78 14.3518C151.194 14.3173 151.557 14.3483 151.868 14.445V11.8143C151.364 11.7521 150.86 11.766 150.355 11.8557C149.851 11.9386 149.396 12.1043 148.988 12.3529C148.726 12.5048 148.495 12.6877 148.294 12.9018C148.101 13.1158 147.932 13.354 147.787 13.6164V11.8143H145.301V23ZM162.521 23.3107C163.136 23.3107 163.695 23.2279 164.199 23.0621C164.703 22.8964 165.152 22.6617 165.545 22.3579V23H168.031V8.08571H165.193V12.1871C164.848 11.9662 164.461 11.797 164.033 11.6796C163.612 11.5623 163.156 11.5036 162.666 11.5036C161.596 11.5036 160.664 11.759 159.87 12.27C159.076 12.781 158.458 13.4818 158.016 14.3725C157.581 15.2563 157.363 16.2679 157.363 17.4071C157.363 18.5257 157.577 19.5304 158.005 20.4211C158.44 21.3118 159.045 22.0161 159.818 22.5339C160.591 23.0518 161.492 23.3107 162.521 23.3107ZM162.977 20.8043C162.369 20.8043 161.872 20.6524 161.485 20.3486C161.099 20.0448 160.812 19.6374 160.626 19.1264C160.439 18.6086 160.346 18.0355 160.346 17.4071C160.346 16.7857 160.443 16.2195 160.636 15.7086C160.829 15.1907 161.126 14.7799 161.527 14.4761C161.934 14.1654 162.452 14.01 163.08 14.01C163.964 14.01 164.596 14.3242 164.976 14.9525C165.356 15.5739 165.545 16.3921 165.545 17.4071C165.545 18.4221 165.352 19.2438 164.965 19.8721C164.586 20.4936 163.923 20.8043 162.977 20.8043ZM176.13 23.3107C177.208 23.3107 178.198 23.0276 179.103 22.4614C180.014 21.8952 180.681 21.1012 181.102 20.0793L178.285 19.2714C177.857 20.2105 177.083 20.68 175.965 20.68C175.198 20.68 174.594 20.466 174.152 20.0379C173.717 19.6098 173.448 18.9952 173.344 18.1943H181.195C181.312 16.841 181.174 15.6637 180.781 14.6625C180.387 13.6613 179.78 12.8845 178.958 12.3321C178.136 11.7798 177.138 11.5036 175.965 11.5036C174.86 11.5036 173.883 11.7556 173.034 12.2596C172.184 12.7568 171.518 13.4576 171.035 14.3621C170.551 15.2667 170.31 16.33 170.31 17.5521C170.31 18.6707 170.555 19.665 171.045 20.535C171.542 21.3981 172.226 22.0782 173.096 22.5754C173.973 23.0656 174.984 23.3107 176.13 23.3107ZM176.089 13.9479C176.766 13.9479 177.283 14.117 177.643 14.4554C178.008 14.7937 178.243 15.3426 178.347 16.1021H173.417C173.714 14.666 174.604 13.9479 176.089 13.9479ZM187.904 23.3107C189.368 23.3107 190.514 22.9827 191.343 22.3268C192.171 21.6708 192.586 20.7698 192.586 19.6236C192.586 18.7536 192.316 18.0665 191.778 17.5625C191.246 17.0585 190.342 16.6407 189.064 16.3093C188.194 16.0883 187.545 15.9088 187.117 15.7707C186.696 15.6326 186.416 15.498 186.278 15.3668C186.147 15.2356 186.081 15.0733 186.081 14.88C186.081 14.5555 186.237 14.3069 186.548 14.1343C186.865 13.9617 187.283 13.8926 187.801 13.9271C188.899 14.01 189.499 14.4795 189.603 15.3357L192.482 14.8179C192.337 13.8029 191.84 12.9985 190.991 12.4046C190.141 11.8039 189.057 11.5036 187.739 11.5036C186.385 11.5036 185.305 11.8212 184.497 12.4564C183.689 13.0917 183.285 13.9479 183.285 15.025C183.285 15.8812 183.565 16.5579 184.124 17.055C184.683 17.5452 185.646 17.9664 187.014 18.3186C187.821 18.5326 188.415 18.7052 188.795 18.8364C189.182 18.9676 189.43 19.1023 189.541 19.2404C189.651 19.3715 189.706 19.5476 189.706 19.7686C189.706 20.1207 189.568 20.3969 189.292 20.5971C189.016 20.7905 188.622 20.8871 188.111 20.8871C187.49 20.8871 186.976 20.7387 186.568 20.4418C186.168 20.1449 185.909 19.734 185.791 19.2093L182.912 19.6443C183.099 20.8112 183.623 21.7157 184.486 22.3579C185.356 22.9931 186.496 23.3107 187.904 23.3107ZM203.545 23.3107C204.07 23.3107 204.553 23.2486 204.995 23.1243C205.444 23 205.851 22.8239 206.217 22.5961V23.725C206.231 24.1393 206.124 24.4845 205.896 24.7607C205.675 25.0438 205.378 25.2544 205.005 25.3925C204.633 25.5375 204.236 25.61 203.814 25.61C203.421 25.61 203.055 25.5237 202.717 25.3511C202.385 25.1785 202.13 24.9264 201.95 24.595L199.34 25.8586C199.768 26.5836 200.379 27.167 201.173 27.6089C201.967 28.0577 202.841 28.2821 203.794 28.2821C204.615 28.2821 205.378 28.1717 206.083 27.9507C206.787 27.7367 207.381 27.4087 207.864 26.9668C208.354 26.5249 208.689 25.9621 208.869 25.2786C208.931 25.0369 208.972 24.7918 208.993 24.5432C209.021 24.3015 209.034 24.0426 209.034 23.7664V11.8143H206.569V12.4357C206.19 12.1388 205.758 11.911 205.275 11.7521C204.798 11.5864 204.27 11.5036 203.69 11.5036C202.62 11.5036 201.688 11.759 200.894 12.27C200.1 12.781 199.482 13.4818 199.04 14.3725C198.605 15.2563 198.387 16.2679 198.387 17.4071C198.387 18.5257 198.601 19.5304 199.029 20.4211C199.464 21.3118 200.069 22.0161 200.842 22.5339C201.615 23.0518 202.516 23.3107 203.545 23.3107ZM204.001 20.8043C203.393 20.8043 202.896 20.6524 202.509 20.3486C202.123 20.0448 201.836 19.6374 201.65 19.1264C201.463 18.6086 201.37 18.0355 201.37 17.4071C201.37 16.7857 201.467 16.2195 201.66 15.7086C201.853 15.1907 202.15 14.7799 202.551 14.4761C202.958 14.1654 203.476 14.01 204.104 14.01C204.988 14.01 205.62 14.3242 206 14.9525C206.38 15.5739 206.569 16.3921 206.569 17.4071C206.569 18.4221 206.376 19.2438 205.989 19.8721C205.61 20.4936 204.947 20.8043 204.001 20.8043ZM215.042 23.3107C215.905 23.3107 216.63 23.1795 217.217 22.9171C217.811 22.6479 218.356 22.2198 218.853 21.6329V23H221.318V16.1643C221.318 15.6533 221.298 15.1907 221.256 14.7764C221.215 14.3621 221.084 13.9479 220.863 13.5336C220.469 12.7879 219.889 12.2631 219.123 11.9593C218.356 11.6555 217.479 11.5036 216.492 11.5036C215.146 11.5036 214.082 11.7936 213.302 12.3736C212.522 12.9536 211.99 13.7062 211.707 14.6314L214.255 15.4393C214.434 14.9283 214.749 14.5727 215.197 14.3725C215.646 14.1723 216.078 14.0721 216.492 14.0721C217.155 14.0721 217.649 14.1964 217.973 14.445C218.298 14.6867 218.487 15.0699 218.543 15.5946C217.493 15.7465 216.568 15.895 215.767 16.04C214.966 16.1781 214.296 16.3438 213.758 16.5371C212.86 16.8686 212.228 17.3208 211.862 17.8939C211.496 18.4601 211.313 19.1333 211.313 19.9136C211.313 20.535 211.455 21.1046 211.738 21.6225C212.028 22.1335 212.449 22.5443 213.002 22.855C213.561 23.1588 214.241 23.3107 215.042 23.3107ZM215.643 21.0943C215.159 21.0943 214.776 20.9873 214.493 20.7732C214.21 20.5523 214.068 20.2519 214.068 19.8721C214.068 19.589 214.158 19.3474 214.338 19.1471C214.517 18.94 214.814 18.7536 215.228 18.5879C215.546 18.4705 215.936 18.3635 216.399 18.2668C216.868 18.1632 217.576 18.032 218.522 17.8732C218.515 18.1425 218.494 18.4394 218.46 18.7639C218.425 19.0815 218.349 19.3612 218.232 19.6029C218.156 19.7617 218.011 19.9585 217.797 20.1932C217.59 20.428 217.307 20.6386 216.948 20.825C216.596 21.0045 216.161 21.0943 215.643 21.0943ZM223.991 23H226.829V16.2264C226.829 15.5843 227.005 15.063 227.357 14.6625C227.716 14.2551 228.189 14.0514 228.776 14.0514C229.39 14.0514 229.87 14.2586 230.215 14.6729C230.568 15.0802 230.744 15.6533 230.744 16.3921V23H233.561V16.2264C233.561 15.5843 233.737 15.063 234.089 14.6625C234.448 14.2551 234.921 14.0514 235.508 14.0514C236.122 14.0514 236.602 14.2586 236.948 14.6729C237.3 15.0802 237.476 15.6533 237.476 16.3921V23H240.293V15.6464C240.293 14.4243 239.965 13.4369 239.309 12.6843C238.66 11.9248 237.697 11.545 236.419 11.545C235.701 11.545 235.042 11.7004 234.441 12.0111C233.84 12.3218 233.36 12.7464 233.001 13.285C232.711 12.7602 232.297 12.339 231.759 12.0214C231.22 11.7038 230.55 11.545 229.749 11.545C229.073 11.545 228.451 11.6796 227.885 11.9489C227.319 12.2113 226.849 12.5738 226.476 13.0364V11.8143H223.991V23ZM247.983 23.3107C249.06 23.3107 250.051 23.0276 250.956 22.4614C251.867 21.8952 252.533 21.1012 252.954 20.0793L250.137 19.2714C249.709 20.2105 248.936 20.68 247.817 20.68C247.051 20.68 246.447 20.466 246.005 20.0379C245.57 19.6098 245.301 18.9952 245.197 18.1943H253.048C253.165 16.841 253.027 15.6637 252.633 14.6625C252.24 13.6613 251.632 12.8845 250.811 12.3321C249.989 11.7798 248.991 11.5036 247.817 11.5036C246.713 11.5036 245.736 11.7556 244.886 12.2596C244.037 12.7568 243.371 13.4576 242.887 14.3621C242.404 15.2667 242.162 16.33 242.162 17.5521C242.162 18.6707 242.407 19.665 242.898 20.535C243.395 21.3981 244.078 22.0782 244.948 22.5754C245.825 23.0656 246.837 23.3107 247.983 23.3107ZM247.942 13.9479C248.618 13.9479 249.136 14.117 249.495 14.4554C249.861 14.7937 250.096 15.3426 250.199 16.1021H245.269C245.566 14.666 246.457 13.9479 247.942 13.9479ZM259.55 23.3314C260.358 23.3314 261.062 23.1968 261.663 22.9275C262.263 22.6582 262.768 22.2992 263.175 21.8504V23H265.661V11.8143H262.823V17.49C262.823 18.1805 262.743 18.7398 262.585 19.1679C262.433 19.589 262.236 19.9101 261.994 20.1311C261.753 20.3451 261.494 20.4901 261.217 20.5661C260.941 20.642 260.682 20.68 260.441 20.68C259.84 20.68 259.374 20.5454 259.042 20.2761C258.718 20.0068 258.483 19.6719 258.338 19.2714C258.193 18.871 258.107 18.4739 258.079 18.0804C258.052 17.6799 258.038 17.3519 258.038 17.0964V11.8143H255.179V18.0907C255.179 18.2771 255.193 18.574 255.221 18.9814C255.248 19.3888 255.328 19.8411 255.459 20.3382C255.59 20.8285 255.808 21.3014 256.111 21.7571C256.422 22.2129 256.854 22.5892 257.406 22.8861C257.958 23.183 258.673 23.3314 259.55 23.3314ZM268.555 23H271.393V17.2829C271.393 15.9848 271.904 15.101 272.926 14.6314C273.257 14.4726 273.627 14.3794 274.034 14.3518C274.448 14.3173 274.811 14.3483 275.122 14.445V11.8143C274.618 11.7521 274.114 11.766 273.61 11.8557C273.105 11.9386 272.65 12.1043 272.242 12.3529C271.98 12.5048 271.749 12.6877 271.548 12.9018C271.355 13.1158 271.186 13.354 271.041 13.6164V11.8143H268.555V23ZM281.058 23.3107C282.522 23.3107 283.668 22.9827 284.497 22.3268C285.325 21.6708 285.739 20.7698 285.739 19.6236C285.739 18.7536 285.47 18.0665 284.932 17.5625C284.4 17.0585 283.495 16.6407 282.218 16.3093C281.348 16.0883 280.699 15.9088 280.271 15.7707C279.85 15.6326 279.57 15.498 279.432 15.3668C279.301 15.2356 279.235 15.0733 279.235 14.88C279.235 14.5555 279.39 14.3069 279.701 14.1343C280.019 13.9617 280.437 13.8926 280.954 13.9271C282.052 14.01 282.653 14.4795 282.757 15.3357L285.636 14.8179C285.491 13.8029 284.994 12.9985 284.144 12.4046C283.295 11.8039 282.211 11.5036 280.892 11.5036C279.539 11.5036 278.458 11.8212 277.65 12.4564C276.843 13.0917 276.439 13.9479 276.439 15.025C276.439 15.8812 276.718 16.5579 277.278 17.055C277.837 17.5452 278.8 17.9664 280.167 18.3186C280.975 18.5326 281.569 18.7052 281.949 18.8364C282.335 18.9676 282.584 19.1023 282.694 19.2404C282.805 19.3715 282.86 19.5476 282.86 19.7686C282.86 20.1207 282.722 20.3969 282.446 20.5971C282.17 20.7905 281.776 20.8871 281.265 20.8871C280.644 20.8871 280.129 20.7387 279.722 20.4418C279.321 20.1449 279.062 19.734 278.945 19.2093L276.066 19.6443C276.252 20.8112 276.777 21.7157 277.64 22.3579C278.51 22.9931 279.649 23.3107 281.058 23.3107Z" fill="white"/>
<defs>
<linearGradient id="paint0_linear" x1="0" y1="3" x2="44.6297" y2="15.9683" gradientUnits="userSpaceOnUse">
<stop stop-color="#D001FF"/>
<stop offset="1" stop-color="#E68DFF"/>
</linearGradient>
</defs>
</svg>
